<?xml version="1.0" standalone="no"?>
<!DOCTYPE svg PUBLIC "-//W3C//DTD SVG 1.1//EN" "http://www.w3.org/Graphics/SVG/1.1/DTD/svg11.dtd" >
<svg xmlns="http://www.w3.org/2000/svg" xmlns:xlink="http://www.w3.org/1999/xlink" version="1.1">
<metadata>
Created by FontForge 20190801 at Fri May 12 15:19:29 2006
 By Jimmy Wärting
 The digitally encoded machine readable software for producing the
 Typefaces licensed to you is copyrighted (c) 1989, 1994, 1998, 2002 Adobe Systems.
 All Rights Reserved. This software is the property of Adobe Systems
 Incorporated and its licensors, and may not be reproduced, used, 
 displayed, modified, disclosed or transferred without the express 
 written approval of Adobe.
 
 The digitally encoded machine readable outline data for producing the Typefaces 
 provided as part of your laser printer is copyrighted (c) 1981, 1998, 2002 Heidelberger Druckmaschinen AG. 
 All rights reserved. This data is the property of Heidelberger Druckmaschinen AG, 
 and may not be reproduced, used, displayed, modified, disclosed or transferred 
 without the express written approval of Heidelberger Druckmaschinen AG. 
</metadata>
<defs>
<font id="AntiqueOliveStd-Italic" horiz-adv-x="278" >
  <font-face 
    font-family="Antique Olive Std"
    font-weight="400"
    font-style="italic"
    font-stretch="normal"
    units-per-em="1000"
    panose-1="2 11 6 3 2 2 4 10 2 4"
    ascent="774"
    descent="-226"
    x-height="623"
    cap-height="742"
    bbox="-133 -250 1056 966"
    underline-thickness="50"
    underline-position="-100"
    slope="-12"
    stemh="94"
    stemv="114"
    unicode-range="U+0020-FB02"
  />
<missing-glyph horiz-adv-x="612" 
d="M112 0v700h500v-700h-500zM362 395l170 255h-340zM392 350l170 -255v510zM192 50h340l-170 255zM162 605v-510l170 255z" />
    <glyph glyph-name="f_i" unicode="fi" horiz-adv-x="667" 
d="M446 0l112 623c16 -11 33 -16 49 -16c22 0 46 3 65 16l-112 -623h-114zM617 668c-29 0 -62 8 -62 51c0 48 41 55 76 55c33 0 72 -5 72 -47c0 -50 -51 -59 -86 -59zM89 0l68 407h-110l18 100h111c2 148 64 267 214 267c38 0 76 -6 115 -30l-17 -96c-21 13 -41 20 -68 20
c-101 0 -119 -69 -130 -137l-4 -24h172l-16 -100h-171l-68 -407h-114z" />
    <glyph glyph-name="f_l" unicode="fl" horiz-adv-x="667" 
d="M447 0l139 774h114l-139 -774h-114zM89 0l68 407h-110l18 100h111c2 148 64 267 214 267c38 0 76 -6 115 -30l-17 -96c-21 13 -41 20 -68 20c-101 0 -119 -69 -130 -137l-4 -24h172l-16 -100h-171l-68 -407h-114z" />
    <glyph glyph-name=".notdef" horiz-adv-x="612" 
d="M112 0v700h500v-700h-500zM362 395l170 255h-340zM392 350l170 -255v510zM192 50h340l-170 255zM162 605v-510l170 255z" />
    <glyph glyph-name="space" unicode=" " 
 />
    <glyph glyph-name="exclam" unicode="!" horiz-adv-x="333" 
d="M208 179h-67l18 161c10 92 44 329 51 358c10 41 25 44 71 44c26 0 50 -6 50 -37c0 -81 -89 -389 -123 -526zM80 39c0 55 43 65 73 65c53 0 69 -20 69 -56c0 -52 -42 -62 -76 -62c-40 0 -66 13 -66 53z" />
    <glyph glyph-name="quotedbl" unicode="&#x22;" horiz-adv-x="444" 
d="M313 508v234h94v-234h-94zM155 508v234h94v-234h-94z" />
    <glyph glyph-name="numbersign" unicode="#" horiz-adv-x="556" 
d="M133 0l28 217h-92l11 82h92l19 144h-93l11 82h93l28 217h84l-28 -217h107l29 217h84l-29 -217h84l-11 -82h-83l-20 -144h84l-11 -82h-83l-29 -217h-84l29 217h-108l-28 -217h-84zM363 299l20 144h-108l-19 -144h107z" />
    <glyph glyph-name="dollar" unicode="$" horiz-adv-x="556" 
d="M194 -150l23 138c-65 4 -113 22 -165 73l20 118c42 -59 107 -85 174 -85c126 0 156 78 156 111c0 168 -280 68 -280 310c0 101 73 214 220 237l23 140h65l-23 -136c64 -1 127 -22 172 -72l-21 -124c-37 46 -101 78 -160 78c-130 0 -158 -64 -158 -113
c0 -139 274 -69 274 -286c0 -140 -98 -239 -232 -251l-23 -138h-65z" />
    <glyph glyph-name="percent" unicode="%" horiz-adv-x="889" 
d="M289 371c-45 0 -131 7 -131 156c0 189 92 229 166 229c82 0 121 -52 121 -154c0 -141 -63 -231 -156 -231zM291 453c36 0 72 34 72 145c0 36 -13 70 -43 70c-57 0 -80 -65 -80 -144c0 -45 18 -71 51 -71zM652 -14c-45 0 -131 7 -131 156c0 189 92 229 166 229
c82 0 121 -52 121 -154c0 -141 -63 -231 -156 -231zM654 68c36 0 72 34 72 145c0 36 -13 70 -43 70c-57 0 -80 -65 -80 -144c0 -45 18 -71 51 -71zM292 0l-56 35l415 707l55 -35z" />
    <glyph glyph-name="ampersand" unicode="&#x26;" horiz-adv-x="667" 
d="M384 398l110 -169c50 59 125 162 146 210h2l-22 -161c-20 -36 -46 -72 -82 -114l99 -164h-121l-56 91c-63 -69 -136 -105 -220 -105c-104 0 -183 54 -183 166c0 130 103 203 200 269c-39 55 -54 111 -54 155c0 108 96 198 215 198c84 0 152 -43 152 -134
c0 -98 -80 -168 -186 -242zM412 164l-114 184c-80 -52 -129 -102 -129 -171c0 -58 46 -97 103 -97c47 0 84 19 140 84zM309 575c0 -31 17 -79 34 -105c85 60 121 94 121 142c0 38 -25 68 -65 68c-55 0 -90 -55 -90 -105z" />
    <glyph glyph-name="quoteright" unicode="&#x2019;" 
d="M201 508h-65c33 74 60 154 73 234h95c-15 -85 -52 -165 -103 -234z" />
    <glyph glyph-name="parenleft" unicode="(" horiz-adv-x="333" 
d="M293 742h107c-129 -150 -176 -368 -176 -482c0 -142 17 -210 35 -260h-84c-37 79 -63 163 -63 251c0 187 65 350 181 491z" />
    <glyph glyph-name="parenright" unicode=")" horiz-adv-x="333" 
d="M131 0h-107c129 150 176 368 176 482c0 142 -17 210 -35 260h84c37 -79 63 -163 63 -251c0 -187 -65 -350 -181 -491z" />
    <glyph glyph-name="asterisk" unicode="*" horiz-adv-x="444" 
d="M244 422l-77 51l93 95l-128 21l31 95l117 -65l-11 123h93l-40 -124l121 67l32 -84l-129 -28l94 -95l-74 -56l-56 128z" />
    <glyph glyph-name="plus" unicode="+" horiz-adv-x="600" 
d="M283 0v206h-206v94h206v206h94v-206h206v-94h-206v-206h-94z" />
    <glyph glyph-name="comma" unicode="," 
d="M81 -134h-65c33 74 60 154 73 234h95c-15 -85 -52 -165 -103 -234z" />
    <glyph glyph-name="hyphen" unicode="-" horiz-adv-x="389" 
d="M110 277l18 100h220l-18 -100h-220z" />
    <glyph glyph-name="period" unicode="." 
d="M49 39c0 55 43 65 73 65c53 0 69 -20 69 -56c0 -52 -42 -62 -76 -62c-40 0 -66 13 -66 53z" />
    <glyph glyph-name="slash" unicode="/" horiz-adv-x="500" 
d="M9 25l509 731l76 -39l-509 -731z" />
    <glyph glyph-name="zero" unicode="0" horiz-adv-x="556" 
d="M67 249c0 169 68 507 303 507c152 0 208 -103 208 -241c0 -187 -79 -529 -321 -529c-157 0 -190 136 -190 263zM167 242c0 -73 13 -162 98 -162c165 0 207 336 207 413c0 71 -20 151 -110 151c-156 0 -195 -290 -195 -402z" />
    <glyph glyph-name="one" unicode="1" horiz-adv-x="556" 
d="M254 0l105 593l-272 -220l23 129l296 240h93l-131 -742h-114z" />
    <glyph glyph-name="two" unicode="2" horiz-adv-x="556" 
d="M19 0l16 93l71 55c44 34 347 254 347 388c0 65 -57 102 -120 102c-100 0 -183 -84 -207 -144l-10 -22l22 180c56 68 113 104 206 104c130 0 239 -63 239 -204c0 -114 -84 -229 -323 -390l-80 -54v-2h321l-17 -106h-465z" />
    <glyph glyph-name="three" unicode="3" horiz-adv-x="556" 
d="M37 74l19 110c43 -71 113 -98 193 -98c85 0 167 59 167 151c0 88 -71 119 -167 119c-22 0 -45 -2 -66 -6l15 85l238 187v2h-309l21 118h447l-20 -119l-259 -195v-2c122 0 218 -44 218 -177s-108 -263 -294 -263c-81 0 -149 26 -203 88z" />
    <glyph glyph-name="four" unicode="4" horiz-adv-x="556" 
d="M440 678l-311 -448h236l77 448h-2zM325 0l22 130h-318l29 164l298 448h211l-88 -512h92l-17 -100h-93l-22 -130h-114z" />
    <glyph glyph-name="five" unicode="5" horiz-adv-x="556" 
d="M46 69l19 106c46 -60 93 -89 184 -89c86 0 171 66 171 163c0 81 -70 120 -158 120c-51 0 -104 -6 -151 -28l70 401h420l-22 -118h-312l-36 -177c30 11 61 16 93 16c131 0 214 -68 214 -207c0 -174 -144 -270 -292 -270c-91 0 -151 29 -200 83z" />
    <glyph glyph-name="six" unicode="6" horiz-adv-x="556" 
d="M438 268c0 69 -35 104 -105 104c-101 0 -152 -88 -152 -179c0 -67 39 -113 111 -113c95 0 146 92 146 188zM604 659l-22 -106c-24 40 -82 91 -158 91c-156 0 -210 -153 -234 -279l2 -2c40 61 103 109 181 109c115 0 177 -76 177 -187c0 -121 -76 -299 -261 -299
c-156 0 -214 106 -214 246c0 213 71 524 342 524c127 0 172 -79 187 -97z" />
    <glyph glyph-name="seven" unicode="7" horiz-adv-x="556" 
d="M83 0l404 624h-362l21 118h484l-24 -139l-400 -603h-123z" />
    <glyph glyph-name="eight" unicode="8" horiz-adv-x="556" 
d="M542 240c0 -152 -99 -254 -269 -254c-128 0 -224 52 -224 193c0 111 75 193 192 205v2c-83 27 -111 80 -111 154c0 114 97 216 235 216c122 0 221 -45 221 -168c0 -117 -69 -182 -179 -206v-1c82 -16 135 -73 135 -141zM161 181c0 -61 52 -101 117 -101
c89 0 146 61 146 156c0 55 -45 89 -113 89c-94 0 -150 -55 -150 -144zM230 516c0 -63 38 -97 103 -97c80 0 141 43 141 128c0 53 -29 97 -104 97c-77 0 -140 -43 -140 -128z" />
    <glyph glyph-name="nine" unicode="9" horiz-adv-x="556" 
d="M51 56l16 107c35 -44 85 -83 147 -83c156 0 208 151 228 268l-2 2c-48 -55 -97 -90 -175 -90c-127 0 -171 93 -171 215c0 158 94 281 260 281c158 0 215 -102 215 -244c0 -204 -81 -526 -333 -526c-70 0 -132 14 -185 70zM194 462c0 -73 47 -108 117 -108
c101 0 152 90 152 172c0 70 -39 118 -111 118c-122 0 -158 -100 -158 -182z" />
    <glyph glyph-name="colon" unicode=":" 
d="M118 428c0 55 43 65 73 65c53 0 69 -20 69 -56c0 -52 -42 -62 -76 -62c-40 0 -66 13 -66 53zM49 39c0 55 43 65 73 65c53 0 69 -20 69 -56c0 -52 -42 -62 -76 -62c-40 0 -66 13 -66 53z" />
    <glyph glyph-name="semicolon" unicode=";" 
d="M81 -134h-65c33 74 60 154 73 234h95c-15 -85 -52 -165 -103 -234zM118 428c0 55 43 65 73 65c53 0 69 -20 69 -56c0 -52 -42 -62 -76 -62c-40 0 -66 13 -66 53z" />
    <glyph glyph-name="less" unicode="&#x3c;" horiz-adv-x="600" 
d="M583 -8l-506 221v80l506 221v-95l-383 -166l383 -166v-95z" />
    <glyph glyph-name="equal" unicode="=" horiz-adv-x="600" 
d="M77 313v94h506v-94h-506zM77 99v94h506v-94h-506z" />
    <glyph glyph-name="greater" unicode="&#x3e;" horiz-adv-x="600" 
d="M77 -8v95l383 166l-383 166v95l506 -221v-80z" />
    <glyph glyph-name="question" unicode="?" horiz-adv-x="500" 
d="M255 180h-83c0 82 22 105 118 201c94 94 126 129 126 170c0 65 -47 93 -107 93c-91 0 -143 -48 -187 -119h-2l17 152c43 55 121 79 191 79c122 0 206 -68 206 -168c0 -200 -260 -264 -279 -408zM129 39c0 55 43 65 73 65c53 0 69 -20 69 -56c0 -52 -42 -62 -76 -62
c-40 0 -66 13 -66 53z" />
    <glyph glyph-name="at" unicode="@" horiz-adv-x="800" 
d="M538 395c0 51 -35 89 -82 89c-76 0 -129 -83 -129 -152c0 -54 32 -93 82 -93c76 0 129 86 129 156zM569 508l16 58h84l-65 -267c-4 -15 -8 -33 -8 -47c0 -12 5 -21 17 -21c59 0 123 79 123 189c0 164 -124 254 -280 254c-178 0 -294 -132 -294 -305
c0 -180 128 -301 307 -301c86 0 167 33 221 85h86c-70 -106 -185 -167 -314 -167c-218 0 -394 165 -394 385c0 217 176 385 389 385c184 0 355 -125 355 -315c0 -209 -180 -296 -254 -296c-31 0 -57 20 -60 57h-2c-27 -29 -70 -57 -111 -57c-86 0 -158 80 -158 173
c0 130 88 260 220 260c50 0 94 -21 122 -70z" />
    <glyph glyph-name="A" unicode="A" horiz-adv-x="611" 
d="M441 309l-36 369h-2l-168 -369h206zM-29 0l351 742h179l87 -742h-116l-20 203h-265l-93 -203h-123z" />
    <glyph glyph-name="B" unicode="B" horiz-adv-x="667" 
d="M287 624l-36 -203h187c75 0 134 41 134 121c0 79 -64 82 -128 82h-157zM63 0l131 742h271c115 0 225 -19 225 -158c0 -128 -91 -191 -206 -202v-2c94 -9 166 -40 166 -146c0 -153 -113 -234 -255 -234h-332zM234 321l-41 -215h151c84 0 188 15 188 129
c0 75 -57 86 -125 86h-173z" />
    <glyph glyph-name="C" unicode="C" horiz-adv-x="611" 
d="M671 659l-25 -130c-54 72 -109 103 -203 103c-174 0 -245 -207 -245 -360c0 -122 62 -180 156 -180c100 0 172 56 230 138h2l-19 -136c-69 -86 -169 -108 -229 -108c-210 0 -252 146 -252 296c0 228 96 474 365 474c100 0 181 -32 220 -97z" />
    <glyph glyph-name="D" unicode="D" horiz-adv-x="722" 
d="M280 624l-90 -518h104c204 0 310 156 310 334c0 180 -108 184 -184 184h-140zM58 0l129 742h273c173 0 262 -79 262 -263c0 -245 -136 -479 -413 -479h-251z" />
    <glyph glyph-name="E" unicode="E" horiz-adv-x="611" 
d="M63 0l131 742h468l-21 -118h-354l-36 -203h348l-19 -106h-347l-37 -209h342l-19 -106h-456z" />
    <glyph glyph-name="F" unicode="F" horiz-adv-x="556" 
d="M63 0l129 742h424l-21 -118h-310l-35 -203h309l-18 -106h-309l-55 -315h-114z" />
    <glyph glyph-name="G" unicode="G" horiz-adv-x="667" 
d="M653 361l-47 -259c-55 -59 -161 -116 -260 -116c-212 0 -260 156 -260 296c0 228 122 474 365 474c87 0 173 -9 248 -101l-25 -133c-54 78 -127 110 -211 110c-191 0 -265 -207 -265 -360c0 -122 68 -180 156 -180c59 0 112 17 145 47l40 222h114z" />
    <glyph glyph-name="H" unicode="H" horiz-adv-x="722" 
d="M63 0l129 742h114l-52 -298h321l52 298h114l-129 -742h-114l57 326h-321l-57 -326h-114z" />
    <glyph glyph-name="I" unicode="I" 
d="M58 0l128 742h114l-128 -742h-114z" />
    <glyph glyph-name="J" unicode="J" horiz-adv-x="444" 
d="M-6 26l13 94c32 -22 60 -34 101 -34c100 0 136 42 158 169l86 487h114l-95 -537c-20 -112 -71 -219 -228 -219c-52 0 -106 8 -149 40z" />
    <glyph glyph-name="K" unicode="K" horiz-adv-x="611" 
d="M58 0l133 742h114l-62 -348l2 -2l297 350h152l-326 -360l224 -382h-134l-216 381h-2l-68 -381h-114z" />
    <glyph glyph-name="L" unicode="L" horiz-adv-x="500" 
d="M63 0l131 742h114l-110 -624h293l-20 -118h-408z" />
    <glyph glyph-name="M" unicode="M" horiz-adv-x="944" 
d="M63 0l133 742h203l60 -612h2l303 612h202l-131 -742h-114l122 660h-2l-340 -660h-123l-78 678h-2l-121 -678h-114z" />
    <glyph glyph-name="N" unicode="N" horiz-adv-x="722" 
d="M63 0l131 742h190l136 -648h2l116 648h106l-133 -742h-171l-148 662h-2l-115 -662h-112z" />
    <glyph glyph-name="O" unicode="O" horiz-adv-x="722" 
d="M722 469c0 -151 -78 -483 -376 -483c-210 0 -260 156 -260 296c0 228 105 474 365 474c184 0 271 -110 271 -287zM443 632c-186 0 -251 -207 -251 -363c0 -121 68 -177 162 -177c180 0 250 198 250 367c0 104 -61 173 -161 173z" />
    <glyph glyph-name="P" unicode="P" horiz-adv-x="667" 
d="M289 624l-48 -269h165c64 0 168 39 168 173c0 66 -44 96 -126 96h-159zM63 0l132 742h270c142 0 227 -31 227 -189c0 -193 -146 -304 -280 -304h-190l-44 -249h-115z" />
    <glyph glyph-name="Q" unicode="Q" horiz-adv-x="722" 
d="M463 -78l-157 66c-176 19 -220 163 -220 294c0 228 105 474 365 474c184 0 271 -110 271 -287c0 -130 -57 -392 -262 -463l207 -84h-204zM443 632c-186 0 -251 -207 -251 -363c0 -121 68 -177 162 -177c180 0 250 198 250 367c0 104 -61 173 -161 173z" />
    <glyph glyph-name="R" unicode="R" horiz-adv-x="667" 
d="M286 624l-37 -212h141c85 0 178 26 178 129c0 83 -78 83 -146 83h-136zM63 0l129 742h275c135 0 219 -29 219 -174c0 -191 -156 -226 -309 -226l242 -342h-142l-239 352l-61 -352h-114z" />
    <glyph glyph-name="S" unicode="S" horiz-adv-x="556" 
d="M579 684l-21 -124c-37 46 -101 78 -160 78c-130 0 -158 -64 -158 -113c0 -139 274 -69 274 -286c0 -150 -113 -253 -261 -253c-84 0 -139 15 -201 75l20 118c42 -61 107 -87 174 -87c126 0 156 80 156 113c0 168 -280 68 -280 310c0 113 92 241 276 241
c68 0 134 -20 181 -72z" />
    <glyph glyph-name="T" unicode="T" horiz-adv-x="556" 
d="M197 0l110 624h-208l21 118h519l-21 -118h-197l-110 -624h-114z" />
    <glyph glyph-name="U" unicode="U" horiz-adv-x="722" 
d="M109 274l85 468h114l-80 -440c-7 -39 -9 -67 -9 -93c0 -62 30 -111 128 -111c105 0 176 63 197 171l86 473h114l-84 -461c-37 -205 -148 -295 -332 -295c-144 0 -227 74 -227 195c0 29 2 60 8 93z" />
    <glyph glyph-name="V" unicode="V" horiz-adv-x="611" 
d="M190 0l-63 742h117l37 -636h2l296 636h127l-365 -742h-151z" />
    <glyph glyph-name="W" unicode="W" horiz-adv-x="944" 
d="M169 0l-32 742h115l14 -606h2l242 606h146l-6 -592l2 -2l253 594h123l-327 -742h-144l-3 582h-2l-236 -582h-147z" />
    <glyph glyph-name="X" unicode="X" horiz-adv-x="611" 
d="M424 0l-100 270l-200 -270h-139l287 377l-147 365h126l104 -287l208 287h143l-301 -386l142 -356h-123z" />
    <glyph glyph-name="Y" unicode="Y" horiz-adv-x="611" 
d="M208 0l48 271l-137 471h128l86 -350l232 350h142l-335 -476l-47 -266h-117z" />
    <glyph glyph-name="Z" unicode="Z" horiz-adv-x="556" 
d="M10 0l25 136l427 482h-349l24 124h476l-30 -156l-420 -474h350l-19 -112h-484z" />
    <glyph glyph-name="bracketleft" unicode="[" horiz-adv-x="333" 
d="M68 0l131 742h181l-17 -94h-80l-98 -554h81l-17 -94h-181z" />
    <glyph glyph-name="backslash" unicode="\" horiz-adv-x="500" 
d="M411 -14l-305 731l86 39l305 -731z" />
    <glyph glyph-name="bracketright" unicode="]" horiz-adv-x="333" 
d="M349 742l-131 -742h-181l17 94h80l98 554h-81l17 94h181z" />
    <glyph glyph-name="asciicircum" unicode="^" horiz-adv-x="600" 
d="M98 348l193 394h88l193 -394h-97l-140 294l-140 -294h-97z" />
    <glyph glyph-name="underscore" unicode="_" horiz-adv-x="500" 
d="M0 -125v50h500v-50h-500z" />
    <glyph glyph-name="quoteleft" unicode="&#x2018;" 
d="M242 742h65c-33 -74 -60 -154 -73 -234h-95c15 85 52 165 103 234z" />
    <glyph glyph-name="a" unicode="a" horiz-adv-x="556" 
d="M531 373l-66 -373h-105l25 116l-2 2c-41 -70 -105 -132 -194 -132c-92 0 -142 62 -142 148c0 232 383 166 383 321c0 54 -53 70 -93 70c-78 0 -136 -28 -223 -113h-2l28 142c85 62 129 83 213 83c164 0 189 -107 189 -171c0 -24 -5 -59 -11 -93zM159 142
c0 -34 30 -68 73 -68c125 0 167 134 185 237c-101 -72 -258 -68 -258 -169z" />
    <glyph glyph-name="b" unicode="b" horiz-adv-x="667" 
d="M58 0l137 774h114l-51 -280h2c35 64 108 143 217 143c137 0 177 -109 177 -226c0 -167 -94 -425 -289 -425c-107 0 -147 49 -182 132h-2l-21 -118h-102zM337 86c139 0 211 191 211 297c0 84 -35 142 -124 142c-151 0 -211 -170 -211 -299c0 -77 37 -140 124 -140z" />
    <glyph glyph-name="c" unicode="c" horiz-adv-x="500" 
d="M553 561l-24 -119c-19 40 -71 83 -145 83c-116 0 -207 -95 -207 -274c0 -87 37 -165 134 -165c77 0 135 60 171 115l4 4l-20 -132c-46 -60 -108 -87 -165 -87c-173 0 -236 100 -236 274c0 204 118 377 315 377c63 0 143 -30 173 -76z" />
    <glyph glyph-name="d" unicode="d" horiz-adv-x="667" 
d="M457 0l24 138h-2c-41 -60 -107 -152 -234 -152c-133 0 -170 120 -170 237c0 166 83 414 284 414c94 0 152 -53 172 -131l2 -1l47 269h114l-135 -774h-102zM181 226c0 -77 23 -140 114 -140c137 0 215 191 215 297c0 84 -48 142 -118 142c-151 0 -211 -170 -211 -299z" />
    <glyph glyph-name="e" unicode="e" horiz-adv-x="611" 
d="M532 174l-16 -107c-44 -45 -117 -81 -205 -81c-163 0 -236 100 -236 244c0 234 125 407 314 407c140 0 222 -63 222 -201c0 -55 -13 -109 -27 -158h-400c-2 -11 -3 -25 -3 -44c0 -98 48 -154 149 -154c79 0 144 35 202 94zM202 372h320c5 16 7 31 7 44
c0 80 -63 115 -135 115c-104 0 -163 -64 -192 -159z" />
    <glyph glyph-name="f" unicode="f" horiz-adv-x="389" 
d="M89 0l68 407h-110l18 100h111c2 148 64 267 214 267c38 0 76 -6 115 -30l-17 -96c-21 13 -41 20 -68 20c-101 0 -119 -69 -130 -137l-4 -24h172l-16 -100h-171l-68 -407h-114z" />
    <glyph glyph-name="g" unicode="g" horiz-adv-x="611" 
d="M503 484l17 139h105l-100 -558c-28 -155 -149 -215 -268 -215c-80 0 -130 12 -197 61l15 86c47 -38 97 -59 158 -59c137 0 182 97 198 182l14 76h-2c-51 -78 -111 -122 -199 -122c-97 0 -161 80 -161 217c0 144 79 346 250 346c104 0 158 -70 168 -153h2zM189 299
c0 -69 25 -131 102 -131c121 0 182 124 182 243c0 67 -35 120 -108 120c-110 0 -176 -134 -176 -232z" />
    <glyph glyph-name="h" unicode="h" horiz-adv-x="667" 
d="M58 0l136 774h114l-52 -295h2c50 88 129 158 247 158c92 0 148 -50 148 -144c0 -20 -2 -40 -6 -60l-76 -433h-114l65 372c4 24 7 52 7 73c0 50 -28 80 -90 80c-142 0 -200 -140 -221 -262l-46 -263h-114z" />
    <glyph glyph-name="i" unicode="i" 
d="M58 0l112 623c16 -11 33 -16 49 -16c22 0 46 3 65 16l-112 -623h-114zM315 727c0 -50 -51 -59 -86 -59c-29 0 -62 8 -62 51c0 48 41 55 76 55c33 0 72 -5 72 -47z" />
    <glyph glyph-name="j" unicode="j" 
d="M-75 -135l13 76c13 -6 26 -9 40 -9c44 0 72 24 80 67l113 624c14 -11 31 -16 49 -16c22 0 46 3 65 16l-110 -608c-12 -65 -37 -165 -165 -165c-29 0 -57 7 -85 15zM315 727c0 -50 -51 -59 -86 -59c-29 0 -62 8 -62 51c0 48 41 55 76 55c33 0 72 -5 72 -47z" />
    <glyph glyph-name="k" unicode="k" horiz-adv-x="556" 
d="M47 0l141 774h114l-81 -443l2 -2l279 294h148l-298 -317l211 -306h-137l-209 308l-56 -308h-114z" />
    <glyph glyph-name="l" unicode="l" 
d="M58 0l139 774h114l-139 -774h-114z" />
    <glyph glyph-name="m" unicode="m" horiz-adv-x="1000" 
d="M58 0l111 623h105l-27 -151l2 -2c47 85 110 167 214 167c103 0 154 -63 147 -165l2 -2c44 92 110 167 218 167c102 0 156 -56 156 -144c0 -24 -14 -101 -16 -109l-68 -384h-114l59 331c7 41 15 75 15 110c0 56 -30 84 -86 84c-109 0 -167 -122 -184 -216l-55 -309h-114
l59 331c7 41 16 75 16 110c0 56 -31 84 -87 84c-101 0 -164 -107 -180 -195l-59 -330h-114z" />
    <glyph glyph-name="n" unicode="n" horiz-adv-x="667" 
d="M58 0l109 623h108l-26 -150h2c57 94 136 164 254 164c92 0 148 -50 148 -144c0 -20 -2 -40 -6 -60l-76 -433h-114l65 372c4 24 7 52 7 73c0 50 -28 80 -90 80c-148 0 -200 -140 -221 -262l-46 -263h-114z" />
    <glyph glyph-name="o" unicode="o" horiz-adv-x="667" 
d="M547 367c0 107 -56 158 -153 158c-140 0 -213 -107 -213 -274c0 -87 37 -165 145 -165c150 0 221 149 221 281zM653 384c0 -180 -99 -398 -342 -398c-145 0 -236 100 -236 274c0 204 118 377 334 377c137 0 244 -91 244 -253z" />
    <glyph glyph-name="p" unicode="p" horiz-adv-x="667" 
d="M30 -150l137 773h108l-22 -136h2c40 71 113 150 222 150c137 0 177 -109 177 -226c0 -167 -94 -425 -289 -425c-107 0 -147 49 -174 116h-2l-45 -252h-114zM337 86c139 0 211 191 211 297c0 84 -35 142 -124 142c-151 0 -211 -170 -211 -299c0 -77 37 -140 124 -140z" />
    <glyph glyph-name="q" unicode="q" horiz-adv-x="667" 
d="M417 -150l51 284h-2c-28 -56 -94 -148 -221 -148c-133 0 -170 120 -170 237c0 166 83 414 284 414c94 0 152 -53 176 -141l2 -1l21 128h108l-135 -773h-114zM181 226c0 -77 23 -140 114 -140c137 0 215 168 215 297c0 84 -48 142 -118 142c-151 0 -211 -170 -211 -299z
" />
    <glyph glyph-name="r" unicode="r" horiz-adv-x="389" 
d="M58 0l107 623h105l-32 -164l1 -2c33 67 85 180 175 180c19 0 43 -6 56 -14l-21 -120c-17 9 -40 16 -65 16c-124 -3 -148 -145 -171 -280l-41 -239h-114z" />
    <glyph glyph-name="s" unicode="s" horiz-adv-x="444" 
d="M470 580l-19 -116c-34 38 -85 61 -136 61c-57 0 -112 -28 -112 -87c0 -109 213 -52 213 -242c0 -120 -101 -210 -219 -210c-68 0 -113 20 -169 65l17 107c33 -36 89 -72 147 -72c55 0 118 32 118 90c0 115 -219 65 -219 251c0 129 106 210 230 210c55 0 113 -19 149 -57z
" />
    <glyph glyph-name="t" unicode="t" horiz-adv-x="444" 
d="M185 507h-102l11 70c100 14 183 91 217 197h39l-32 -167h185l-17 -100h-188l-38 -197c-4 -20 -26 -129 -26 -148c0 -42 16 -82 80 -82c42 0 87 23 119 49l-17 -100c-47 -27 -106 -43 -154 -43c-89 0 -140 59 -140 146c0 45 5 74 13 116z" />
    <glyph glyph-name="u" unicode="u" horiz-adv-x="667" 
d="M450 0l25 133l-2 2c-53 -83 -121 -149 -228 -149c-101 0 -160 63 -160 164c0 28 10 72 16 107l65 366h114l-61 -340c-9 -51 -10 -76 -10 -101c0 -78 37 -96 94 -96c134 0 182 167 200 265l49 272h114l-111 -623h-105z" />
    <glyph glyph-name="v" unicode="v" horiz-adv-x="556" 
d="M169 0l-68 623h116l41 -505h2l243 505h130l-314 -623h-150z" />
    <glyph glyph-name="w" unicode="w" horiz-adv-x="889" 
d="M144 0l-18 623h115v-505h2l209 505h155l11 -505h2l198 505h123l-262 -623h-149l-10 541h-2l-218 -541h-156z" />
    <glyph glyph-name="x" unicode="x" horiz-adv-x="556" 
d="M-1 0l244 316l-140 307h128l90 -239l162 239h135l-245 -317l140 -306h-125l-87 231l-157 -231h-145z" />
    <glyph glyph-name="y" unicode="y" horiz-adv-x="556" 
d="M96 -150l81 164l-78 609h118l46 -478h2l236 478h134l-415 -773h-124z" />
    <glyph glyph-name="z" unicode="z" horiz-adv-x="500" 
d="M12 0l25 133l359 384h-292l19 106h414l-25 -138l-354 -379h296l-15 -106h-427z" />
    <glyph glyph-name="braceleft" unicode="{" horiz-adv-x="333" 
d="M79 330l14 82c40 0 84 18 93 69l30 171c11 65 63 90 113 90h76l-16 -94h-37c-28 0 -45 -14 -51 -48l-23 -131c-16 -92 -80 -93 -122 -97v-2c35 -5 91 -13 91 -71c0 -8 -1 -16 -3 -26l-23 -131c-1 -7 -2 -12 -2 -17c0 -22 14 -31 37 -31h37l-16 -94h-73
c-44 0 -85 19 -85 67c0 7 1 15 2 23l30 171c1 7 2 13 2 19c0 43 -35 50 -74 50z" />
    <glyph glyph-name="bar" unicode="|" horiz-adv-x="222" 
d="M104 750h94v-1000h-94v1000z" />
    <glyph glyph-name="braceright" unicode="}" horiz-adv-x="333" 
d="M335 412l-14 -82c-40 0 -84 -18 -93 -69l-30 -171c-11 -65 -63 -90 -113 -90h-76l16 94h37c28 0 45 14 51 48l23 131c16 92 80 93 122 97v2c-35 5 -91 13 -91 71c0 8 1 16 3 26l23 131c1 7 2 12 2 17c0 22 -14 31 -37 31h-37l16 94h73c44 0 85 -19 85 -67
c0 -7 -1 -15 -2 -23l-30 -171c-1 -7 -2 -13 -2 -19c0 -43 35 -50 74 -50z" />
    <glyph glyph-name="asciitilde" unicode="~" horiz-adv-x="600" 
d="M125 170l-36 76c22 40 58 84 125 84c34 0 74 -14 111 -30s75 -36 102 -36c40 0 65 37 88 72l36 -76c-30 -42 -63 -86 -125 -86c-37 0 -69 15 -102 33c-32 17 -69 35 -115 35c-44 0 -68 -37 -84 -72z" />
    <glyph glyph-name="exclamdown" unicode="&#xa1;" horiz-adv-x="333" 
d="M185 429h67l-18 -161c-10 -92 -44 -329 -51 -358c-10 -41 -25 -44 -71 -44c-26 0 -50 6 -50 37c0 81 89 389 123 526zM313 570c0 -55 -43 -65 -73 -65c-53 0 -69 20 -69 56c0 52 42 62 76 62c40 0 66 -13 66 -53z" />
    <glyph glyph-name="cent" unicode="&#xa2;" horiz-adv-x="556" 
d="M298 96l104 423c-106 -13 -185 -106 -185 -268c0 -69 23 -133 81 -155zM250 -100l23 92c-122 25 -168 119 -168 268c0 204 118 377 315 377c3 0 7 0 11 -1l24 98l52 -12l-23 -94c46 -12 89 -36 109 -67l-24 -125c-16 34 -56 70 -113 82l-106 -432h1c77 0 135 60 171 115
l4 4l-20 -132c-46 -60 -108 -87 -165 -87c-5 0 -10 0 -15 1l-24 -98z" />
    <glyph glyph-name="sterling" unicode="&#xa3;" horiz-adv-x="556" 
d="M428 292h-175c-14 -92 -24 -128 -76 -165l2 -2c19 5 40 12 61 12c66 0 106 -45 162 -45c66 0 111 66 145 113l2 -2l-30 -164c-49 -41 -81 -53 -129 -53c-81 0 -125 45 -195 45c-36 0 -80 -24 -113 -45l-52 114c87 40 102 107 114 192h-72l16 94h70c5 170 38 370 249 370
c88 0 147 -40 195 -111l-28 -155h-2c-32 76 -72 148 -165 148c-95 0 -130 -82 -143 -252h180z" />
    <glyph glyph-name="fraction" unicode="&#x2044;" horiz-adv-x="167" 
d="M-60 -14h-73l432 770h73z" />
    <glyph glyph-name="yen" unicode="&#xa5;" horiz-adv-x="556" 
d="M208 0l27 138h-131l15 76h131l11 57l-7 25h-121l15 76h85l-101 370h128l80 -350l238 350h142l-266 -370h78l-15 -76h-118l-22 -30l-10 -52h134l-15 -76h-134l-27 -138h-117z" />
    <glyph glyph-name="florin" unicode="&#x192;" horiz-adv-x="556" 
d="M70 -135l18 98c13 -7 27 -13 43 -13c49 0 58 12 84 158l54 299h-103l16 94h103c23 143 55 255 177 255c36 0 71 -8 108 -23l-19 -97c-19 12 -42 20 -67 20c-60 0 -73 -85 -85 -155h131l-16 -94h-131l-74 -412c-21 -116 -93 -145 -159 -145c-27 0 -55 8 -80 15z" />
    <glyph glyph-name="section" unicode="&#xa7;" horiz-adv-x="556" 
d="M15 -53l23 115c34 -61 101 -112 179 -112c52 0 125 20 125 88c0 57 -65 77 -132 105c-65 27 -130 62 -130 150c0 77 61 132 133 144c-41 35 -53 68 -53 121c0 115 123 198 228 198c72 0 142 -28 198 -72l-26 -139c-38 53 -96 99 -176 99c-47 0 -118 -21 -118 -87
c0 -49 66 -73 132 -104c65 -31 131 -68 131 -144c0 -78 -55 -131 -127 -151c31 -29 46 -71 46 -109c0 -127 -102 -199 -234 -199c-94 0 -145 45 -199 97zM180 316c0 -73 132 -99 182 -132c29 28 61 50 61 97c0 72 -121 101 -168 131c-42 -16 -75 -48 -75 -96z" />
    <glyph glyph-name="currency" unicode="&#xa4;" horiz-adv-x="556" 
d="M64 169l57 58c-34 34 -49 90 -49 144s15 110 49 144l-57 58l55 55l56 -57c35 30 92 48 145 48s110 -18 145 -48l56 57l55 -55l-57 -58c34 -34 49 -90 49 -144s-15 -110 -49 -144l57 -58l-55 -55l-56 57c-35 -30 -92 -48 -145 -48s-110 18 -145 48l-56 -57zM166 371
c0 -87 64 -160 154 -160s154 73 154 160s-64 160 -154 160s-154 -73 -154 -160z" />
    <glyph glyph-name="quotesingle" unicode="'" 
d="M151 508v234h94v-234h-94z" />
    <glyph glyph-name="quotedblleft" unicode="&#x201c;" horiz-adv-x="444" 
d="M245 742h65c-33 -74 -60 -154 -73 -234h-95c15 85 52 165 103 234zM406 742h65c-33 -74 -60 -154 -73 -234h-95c15 85 52 165 103 234z" />
    <glyph glyph-name="guillemotleft" unicode="&#xab;" horiz-adv-x="444" 
d="M285 502l-122 -175l62 -175h-79l-74 175l137 175h76zM462 502l-122 -175l62 -175h-79l-74 175l137 175h76z" />
    <glyph glyph-name="guilsinglleft" unicode="&#x2039;" 
d="M171 327l62 -175h-79l-74 175l137 175h76z" />
    <glyph glyph-name="guilsinglright" unicode="&#x203a;" 
d="M166 327l-62 175h79l74 -175l-137 -175h-76z" />
    <glyph glyph-name="endash" unicode="&#x2013;" horiz-adv-x="500" 
d="M23 280l18 94h500l-18 -94h-500z" />
    <glyph glyph-name="dagger" unicode="&#x2020;" horiz-adv-x="556" 
d="M195 0l75 420h-182l20 112h182l38 210h114l-38 -210h182l-20 -112h-182l-75 -420h-114z" />
    <glyph glyph-name="daggerdbl" unicode="&#x2021;" horiz-adv-x="556" 
d="M196 0l28 160h-185l18 100h184l39 221h-182l18 100h181l28 161h114l-28 -161h181l-18 -100h-180l-39 -221h180l-18 -100h-179l-28 -160h-114z" />
    <glyph glyph-name="periodcentered" unicode="&#xb7;" 
d="M91 304c0 44 37 81 81 81s81 -37 81 -81s-37 -81 -81 -81s-81 37 -81 81z" />
    <glyph glyph-name="paragraph" unicode="&#xb6;" horiz-adv-x="600" 
d="M192 -150l92 531c-123 0 -189 59 -189 151c0 154 137 210 271 210h282l-155 -892h-94l142 816h-113l-142 -816h-94z" />
    <glyph glyph-name="bullet" unicode="&#x2022;" horiz-adv-x="500" 
d="M105 369c0 102 83 185 185 185s185 -83 185 -185s-83 -185 -185 -185s-185 83 -185 185z" />
    <glyph glyph-name="quotesinglbase" unicode="&#x201a;" 
d="M86 -134h-65c33 74 60 154 73 234h95c-15 -85 -52 -165 -103 -234z" />
    <glyph glyph-name="quotedblbase" unicode="&#x201e;" horiz-adv-x="444" 
d="M85 -134h-65c33 74 60 154 73 234h95c-15 -85 -52 -165 -103 -234zM246 -134h-65c33 74 60 154 73 234h95c-15 -85 -52 -165 -103 -234z" />
    <glyph glyph-name="quotedblright" unicode="&#x201d;" horiz-adv-x="444" 
d="M203 508h-65c33 74 60 154 73 234h95c-15 -85 -52 -165 -103 -234zM364 508h-65c33 74 60 154 73 234h95c-15 -85 -52 -165 -103 -234z" />
    <glyph glyph-name="guillemotright" unicode="&#xbb;" horiz-adv-x="444" 
d="M340 327l-62 175h79l74 -175l-137 -175h-76zM163 327l-62 175h79l74 -175l-137 -175h-76z" />
    <glyph glyph-name="ellipsis" unicode="&#x2026;" horiz-adv-x="1000" 
d="M78 39c0 55 43 65 73 65c53 0 69 -20 69 -56c0 -52 -42 -62 -76 -62c-40 0 -66 13 -66 53zM411 39c0 55 43 65 73 65c53 0 69 -20 69 -56c0 -52 -42 -62 -76 -62c-40 0 -66 13 -66 53zM744 39c0 55 43 65 73 65c53 0 69 -20 69 -56c0 -52 -42 -62 -76 -62
c-40 0 -66 13 -66 53z" />
    <glyph glyph-name="perthousand" unicode="&#x2030;" horiz-adv-x="1000" 
d="M910 371c82 0 121 -52 121 -154c0 -141 -63 -231 -156 -231c-45 0 -131 7 -131 156c0 189 92 229 166 229zM906 283c-57 0 -80 -65 -80 -144c0 -45 18 -71 51 -71c36 0 72 34 72 145c0 36 -13 70 -43 70zM239 756c82 0 121 -52 121 -154c0 -141 -63 -231 -156 -231
c-45 0 -131 7 -131 156c0 189 92 229 166 229zM235 668c-57 0 -80 -65 -80 -144c0 -45 18 -71 51 -71c36 0 72 34 72 145c0 36 -13 70 -43 70zM602 371c82 0 121 -52 121 -154c0 -141 -63 -231 -156 -231c-45 0 -131 7 -131 156c0 189 92 229 166 229zM598 283
c-57 0 -80 -65 -80 -144c0 -45 18 -71 51 -71c36 0 72 34 72 145c0 36 -13 70 -43 70zM207 0l-56 35l415 707l55 -35z" />
    <glyph glyph-name="questiondown" unicode="&#xbf;" horiz-adv-x="500" 
d="M315 426h83c0 -82 -22 -105 -118 -201c-94 -94 -126 -129 -126 -170c0 -65 47 -93 107 -93c91 0 143 48 187 119h2l-17 -152c-43 -55 -121 -79 -191 -79c-122 0 -206 68 -206 168c0 200 260 264 279 408zM441 570c0 -55 -43 -65 -73 -65c-53 0 -69 20 -69 56
c0 52 42 62 76 62c40 0 66 -13 66 -53z" />
    <glyph glyph-name="grave" unicode="`" 
d="M234 691l-154 112h145l105 -112h-96z" />
    <glyph glyph-name="acute" unicode="&#xb4;" 
d="M130 691l105 112h145v-2l-154 -110h-96z" />
    <glyph glyph-name="circumflex" unicode="&#x2c6;" 
d="M72 691l105 112h141l60 -112h-85l-48 79l-77 -79h-96z" />
    <glyph glyph-name="tilde" unicode="&#x2dc;" 
d="M91 683l18 100c35 22 50 26 68 26c47 0 93 -40 132 -40c27 0 57 26 76 44l-17 -99c-34 -20 -50 -27 -71 -27c-53 0 -90 40 -128 40c-26 0 -41 -14 -78 -44z" />
    <glyph glyph-name="macron" unicode="&#xaf;" 
d="M78 721l11 82h303l-11 -82h-303z" />
    <glyph glyph-name="breve" unicode="&#x2d8;" 
d="M118 813h70c-2 -41 11 -62 54 -62c42 0 62 24 73 62h69c-13 -80 -64 -132 -143 -132c-123 0 -123 79 -123 132z" />
    <glyph glyph-name="dotaccent" unicode="&#x2d9;" 
d="M171 743c0 38 22 60 66 60c34 0 64 -11 64 -44c0 -40 -22 -62 -66 -62c-34 0 -64 11 -64 46z" />
    <glyph glyph-name="dieresis" unicode="&#xa8;" 
d="M81 743c0 38 22 60 66 60c34 0 64 -11 64 -44c0 -40 -22 -62 -66 -62c-34 0 -64 11 -64 46zM275 743c0 38 22 60 66 60c34 0 64 -11 64 -44c0 -40 -22 -62 -66 -62c-34 0 -64 11 -64 46z" />
    <glyph glyph-name="ring" unicode="&#x2da;" 
d="M289 776c0 31 -23 54 -54 54s-54 -23 -54 -54s23 -54 54 -54c27 0 54 21 54 54zM129 776c0 59 47 106 106 106s106 -47 106 -106s-47 -106 -106 -106s-106 47 -106 106z" />
    <glyph glyph-name="cedilla" unicode="&#xb8;" 
d="M22 -134l90 136h87l-74 -136h-103z" />
    <glyph glyph-name="hungarumlaut" unicode="&#x2dd;" 
d="M37 691l95 112h140v-2l-139 -110h-96zM238 691l95 112h140v-2l-139 -110h-96z" />
    <glyph glyph-name="ogonek" unicode="&#x2db;" 
d="M198 -84l38 -7c-21 -41 -46 -65 -107 -65s-87 28 -87 61c0 36 40 77 111 99h52c-61 -32 -87 -62 -87 -86c0 -18 13 -32 35 -32c19 0 34 9 45 30z" />
    <glyph glyph-name="caron" unicode="&#x2c7;" 
d="M141 691l-60 112h85l48 -79l77 79h96l-105 -112h-141z" />
    <glyph glyph-name="emdash" unicode="&#x2014;" horiz-adv-x="1000" 
d="M23 280l18 94h1000l-18 -94h-1000z" />
    <glyph glyph-name="AE" unicode="&#xc6;" horiz-adv-x="944" 
d="M-29 0l495 742h492l-21 -118h-279l-36 -203h278l-19 -106h-278l-37 -209h283l-19 -106h-397l36 203h-230l-135 -203h-133zM488 309l63 355l-2 2l-239 -357h178z" />
    <glyph glyph-name="ordfeminine" unicode="&#xaa;" horiz-adv-x="361" 
d="M123 612l18 94c55 38 84 50 141 50c109 0 125 -64 125 -102c0 -15 -3 -36 -7 -56l-43 -226h-73l15 71h-2c-25 -43 -63 -77 -124 -77c-60 0 -92 37 -92 88c0 138 238 101 238 187c0 17 -20 27 -50 27c-49 0 -97 -21 -145 -56h-1zM169 471c0 -18 9 -29 35 -29
c62 0 103 46 120 119c-40 -19 -155 -45 -155 -90z" />
    <glyph glyph-name="Lslash" unicode="&#x141;" horiz-adv-x="500" 
d="M63 0l43 246l-88 -53l14 97l92 54l70 398h114l-57 -322l179 106l-15 -97l-181 -107l-36 -204h293l-20 -118h-408z" />
    <glyph glyph-name="Oslash" unicode="&#xd8;" horiz-adv-x="722" 
d="M591 535l-357 -395c29 -33 71 -48 120 -48c180 0 250 198 250 367c0 29 -5 54 -13 76zM204 191l356 394c-27 30 -67 47 -117 47c-186 0 -251 -207 -251 -363c0 -29 4 -55 12 -78zM715 756l41 -38l-72 -80c26 -46 38 -103 38 -169c0 -151 -78 -483 -376 -483
c-88 0 -149 28 -188 69l-62 -69l-44 38l72 79c-28 53 -38 118 -38 179c0 228 105 474 365 474c88 0 154 -25 199 -72z" />
    <glyph glyph-name="OE" unicode="&#x152;" horiz-adv-x="1000" 
d="M517 0l18 100l-2 2c-52 -69 -121 -116 -231 -116c-194 0 -216 162 -216 280c0 250 104 490 365 490c84 0 169 -52 178 -137l2 1l18 122h407l-21 -118h-289l-36 -203h286l-19 -106h-286l-37 -209h287l-19 -106h-405zM598 468c0 101 -54 164 -155 164
c-175 0 -245 -207 -245 -358c0 -100 34 -176 141 -176c183 0 259 227 259 370z" />
    <glyph glyph-name="ordmasculine" unicode="&#xba;" horiz-adv-x="434" 
d="M397 579c0 58 -37 89 -86 89c-78 0 -125 -57 -125 -137c0 -58 37 -89 86 -89c78 0 125 57 125 137zM485 592c0 -122 -76 -226 -223 -226c-95 0 -164 54 -164 164c0 122 76 226 223 226c95 0 164 -54 164 -164z" />
    <glyph glyph-name="ae" unicode="&#xe6;" horiz-adv-x="944" 
d="M356 637c76 0 139 -21 178 -90c53 57 130 90 210 90c110 0 198 -57 198 -200c0 -49 -11 -103 -23 -159h-381c-3 -17 -7 -37 -7 -63c0 -91 59 -135 141 -135c61 0 144 35 197 97l-18 -105c-54 -51 -126 -86 -198 -86c-115 0 -184 39 -214 139h-2
c-38 -105 -137 -139 -213 -139c-124 0 -182 58 -182 158c0 252 419 144 419 311c0 45 -47 70 -97 70c-90 0 -160 -28 -252 -101l31 130c85 62 129 83 213 83zM240 74c129 0 181 122 191 234c-104 -65 -277 -51 -277 -165c0 -52 43 -69 86 -69zM557 372h298c4 20 5 37 5 54
c0 79 -56 105 -127 105c-94 0 -159 -56 -176 -159z" />
    <glyph glyph-name="dotlessi" unicode="&#x131;" 
d="M58 0l112 623c16 -11 33 -16 49 -16c22 0 46 3 65 16l-112 -623h-114z" />
    <glyph glyph-name="lslash" unicode="&#x142;" 
d="M58 0l54 301l-84 -57l12 84l88 59l69 387h114l-54 -299l75 51l-12 -86l-79 -53l-69 -387h-114z" />
    <glyph glyph-name="oslash" unicode="&#xf8;" horiz-adv-x="667" 
d="M530 452l-305 -329c21 -23 55 -37 101 -37c150 0 221 149 221 281c0 34 -6 63 -17 85zM195 170l302 324c-25 21 -60 31 -103 31c-140 0 -213 -107 -213 -274c0 -29 4 -56 14 -81zM55 20l63 67c-28 44 -43 102 -43 173c0 204 118 377 334 377c65 0 123 -20 166 -59l59 63
l39 -34l-63 -69c27 -40 43 -91 43 -154c0 -180 -99 -398 -342 -398c-64 0 -118 20 -159 58l-57 -62z" />
    <glyph glyph-name="oe" unicode="&#x153;" horiz-adv-x="1000" 
d="M977 278h-378c-3 -17 -5 -36 -5 -62c0 -88 64 -136 130 -136c79 0 140 30 210 96l-24 -109c-66 -57 -134 -81 -205 -81c-72 0 -151 33 -176 132c-41 -76 -132 -132 -218 -132c-163 0 -236 100 -236 274c0 204 118 377 316 377c72 0 154 -31 182 -114
c53 69 123 114 229 114c114 0 202 -63 202 -201c0 -49 -13 -103 -27 -158zM181 243c0 -83 37 -157 125 -157c145 0 206 148 206 281c0 91 -40 158 -134 158c-152 0 -197 -147 -197 -282zM613 372h302c5 16 7 31 7 44c0 80 -63 115 -135 115c-92 0 -160 -65 -174 -159z" />
    <glyph glyph-name="germandbls" unicode="&#xdf;" horiz-adv-x="611" 
d="M58 0l96 525c27 149 98 249 265 249c107 0 192 -47 192 -164c0 -127 -71 -189 -191 -213v-2c95 -17 159 -64 159 -171c0 -148 -93 -238 -239 -238c-26 0 -71 7 -103 22l18 85c26 -14 57 -19 80 -19c31 0 132 26 132 152c0 90 -73 110 -156 106l20 112
c85 -2 168 48 168 146c0 45 -31 72 -83 72c-116 0 -141 -98 -157 -188l-87 -474h-114z" />
    <glyph glyph-name="logicalnot" unicode="&#xac;" horiz-adv-x="600" 
d="M489 108v205h-412v94h506v-299h-94z" />
    <glyph glyph-name="mu" unicode="&#xb5;" horiz-adv-x="667" 
d="M28 -150l138 773h114l-61 -340c-8 -46 -10 -84 -10 -101c0 -78 35 -96 94 -96c134 0 182 167 200 265l49 272h114l-111 -623h-105l25 133l-2 2c-53 -83 -121 -149 -228 -149c-34 0 -59 8 -75 20l-28 -156h-114z" />
    <glyph glyph-name="trademark" unicode="&#x2122;" horiz-adv-x="990" 
d="M864 330v300h-2l-111 -300h-69l-111 300h-2v-300h-94v412h139l103 -270l103 270h138v-412h-94zM213 330v336h-121v76h336v-76h-121v-336h-94z" />
    <glyph glyph-name="Eth" unicode="&#xd0;" horiz-adv-x="722" 
d="M58 0l62 356h-84l15 88h84l52 298h273c173 0 262 -79 262 -263c0 -245 -136 -479 -413 -479h-251zM233 356l-43 -250h104c204 0 310 156 310 334c0 180 -108 184 -184 184h-140l-32 -180h176l-15 -88h-176z" />
    <glyph glyph-name="onehalf" unicode="&#xbd;" horiz-adv-x="834" 
d="M239 0l-56 35l415 707l55 -35zM164 298l68 340l-168 -129l17 102l178 139h81l-85 -452h-91zM475 0l13 72l43 33c140 100 220 154 220 215c0 47 -42 56 -75 56c-65 0 -110 -46 -143 -88h-2l19 110c35 28 76 60 140 60c84 0 155 -38 155 -123c0 -68 -28 -111 -179 -215
l-52 -36v-2h177l-13 -82h-303z" />
    <glyph glyph-name="plusminus" unicode="&#xb1;" horiz-adv-x="600" 
d="M283 130v141h-206v94h206v141h94v-141h206v-94h-206v-141h-94zM77 0v94h506v-94h-506z" />
    <glyph glyph-name="Thorn" unicode="&#xde;" horiz-adv-x="667" 
d="M274 534l-49 -269h167c64 0 168 39 168 173c0 66 -44 96 -126 96h-160zM63 0l132 742h117l-16 -90h155c142 0 227 -31 227 -189c0 -193 -146 -304 -280 -304h-190l-28 -159h-117z" />
    <glyph glyph-name="onequarter" unicode="&#xbc;" horiz-adv-x="834" 
d="M684 154l43 222h-2l-176 -222h135zM264 0l-56 35l415 707l55 -35zM659 0l14 72h-204l22 118l194 262h143l-56 -298h52l-13 -82h-53l-14 -72h-85zM189 298l68 340l-168 -129l17 102l178 139h81l-85 -452h-91z" />
    <glyph glyph-name="divide" unicode="&#xf7;" horiz-adv-x="600" 
d="M77 206v94h506v-94h-506zM251 461c0 42 37 80 79 80s79 -38 79 -80s-37 -80 -79 -80s-79 38 -79 80zM251 45c0 42 37 80 79 80s79 -38 79 -80s-37 -80 -79 -80s-79 38 -79 80z" />
    <glyph glyph-name="brokenbar" unicode="&#xa6;" horiz-adv-x="222" 
d="M104 675h94v-350h-94v350zM104 175h94v-350h-94v350z" />
    <glyph glyph-name="degree" unicode="&#xb0;" horiz-adv-x="400" 
d="M413 613c0 -80 -63 -143 -143 -143s-143 63 -143 143s63 143 143 143s143 -63 143 -143zM191 613c0 -44 35 -79 79 -79s79 35 79 79s-35 79 -79 79s-79 -35 -79 -79z" />
    <glyph glyph-name="thorn" unicode="&#xfe;" horiz-adv-x="667" 
d="M30 -150l165 924h114l-49 -279h2c33 63 106 142 215 142c137 0 177 -109 177 -226c0 -167 -94 -425 -289 -425c-107 0 -147 49 -174 116h-2l-45 -252h-114zM337 86c139 0 211 191 211 297c0 84 -35 142 -124 142c-151 0 -211 -170 -211 -299c0 -77 37 -140 124 -140z" />
    <glyph glyph-name="threequarters" unicode="&#xbe;" horiz-adv-x="834" 
d="M699 154l43 222h-2l-176 -222h135zM299 0l-56 35l415 707l55 -35zM674 0l14 72h-204l22 118l194 262h143l-56 -298h52l-13 -82h-53l-14 -72h-85zM59 344l12 94c34 -42 75 -58 123 -58c73 0 97 40 97 77c0 44 -56 56 -97 56c-14 0 -29 -1 -43 -4l10 70l132 81v2h-178
l13 88h297l-13 -85l-173 -98v-2c74 0 146 -18 146 -116c0 -79 -70 -157 -188 -157c-59 0 -103 15 -138 52z" />
    <glyph glyph-name="registered" unicode="&#xae;" horiz-adv-x="800" 
d="M55 371c0 213 172 385 385 385s385 -172 385 -385s-172 -385 -385 -385s-385 172 -385 385zM143 371c0 -176 127 -309 297 -309s297 133 297 309s-127 309 -297 309s-297 -133 -297 -309zM369 340v-184h-82v431h163c107 0 168 -34 168 -128c0 -78 -49 -109 -113 -115
l115 -188h-90l-105 184h-56zM369 523v-119h83c47 0 84 7 84 63c0 50 -49 56 -89 56h-78z" />
    <glyph glyph-name="minus" unicode="&#x2212;" horiz-adv-x="600" 
d="M77 206v94h506v-94h-506z" />
    <glyph glyph-name="eth" unicode="&#xf0;" horiz-adv-x="667" 
d="M375 465c-99 0 -194 -74 -194 -197c0 -92 62 -182 163 -182c124 0 197 86 197 224c0 72 -51 155 -166 155zM202 664l121 54c-28 15 -58 26 -90 34l54 81c50 -18 98 -41 140 -68l152 68l56 -60l-135 -60c95 -85 153 -201 153 -365c0 -180 -97 -362 -313 -362
c-138 0 -265 104 -265 290c0 179 145 289 299 289c41 0 108 -10 150 -59h2c-24 62 -66 118 -124 163l-144 -64z" />
    <glyph glyph-name="multiply" unicode="&#xd7;" horiz-adv-x="600" 
d="M184 20l-67 67l166 166l-166 166l67 67l166 -167l166 167l67 -67l-167 -166l167 -166l-67 -67l-166 167z" />
    <glyph glyph-name="copyright" unicode="&#xa9;" horiz-adv-x="800" 
d="M558 307h84c-17 -103 -95 -163 -187 -163c-131 0 -218 101 -218 229c0 132 81 231 216 231c95 0 171 -56 186 -161h-81c-9 51 -52 79 -105 79c-79 0 -122 -62 -122 -147c0 -81 48 -149 124 -149c56 0 97 30 103 81zM143 371c0 -176 127 -309 297 -309s297 133 297 309
s-127 309 -297 309s-297 -133 -297 -309zM55 371c0 213 172 385 385 385s385 -172 385 -385s-172 -385 -385 -385s-385 172 -385 385z" />
    <glyph glyph-name="Aacute" unicode="&#xc1;" horiz-adv-x="611" 
d="M441 309l-36 369h-2l-168 -369h206zM-29 0l351 742h179l87 -742h-116l-20 203h-265l-93 -203h-123zM315 775l105 112h145v-2l-154 -110h-96z" />
    <glyph glyph-name="Acircumflex" unicode="&#xc2;" horiz-adv-x="611" 
d="M441 309l-36 369h-2l-168 -369h206zM-29 0l351 742h179l87 -742h-116l-20 203h-265l-93 -203h-123zM257 775l105 112h141l60 -112h-85l-48 79l-77 -79h-96z" />
    <glyph glyph-name="Adieresis" unicode="&#xc4;" horiz-adv-x="611" 
d="M441 309l-36 369h-2l-168 -369h206zM-29 0l351 742h179l87 -742h-116l-20 203h-265l-93 -203h-123zM266 827c0 38 22 60 66 60c34 0 64 -11 64 -44c0 -40 -22 -62 -66 -62c-34 0 -64 11 -64 46zM460 827c0 38 22 60 66 60c34 0 64 -11 64 -44c0 -40 -22 -62 -66 -62
c-34 0 -64 11 -64 46z" />
    <glyph glyph-name="Agrave" unicode="&#xc0;" horiz-adv-x="611" 
d="M441 309l-36 369h-2l-168 -369h206zM-29 0l351 742h179l87 -742h-116l-20 203h-265l-93 -203h-123zM419 775l-154 112h145l105 -112h-96z" />
    <glyph glyph-name="Aring" unicode="&#xc5;" horiz-adv-x="611" 
d="M441 309l-36 369h-2l-168 -369h206zM-29 0l351 742h179l87 -742h-116l-20 203h-265l-93 -203h-123zM474 860c0 31 -23 54 -54 54s-54 -23 -54 -54s23 -54 54 -54c27 0 54 21 54 54zM314 860c0 59 47 106 106 106s106 -47 106 -106s-47 -106 -106 -106s-106 47 -106 106z
" />
    <glyph glyph-name="Atilde" unicode="&#xc3;" horiz-adv-x="611" 
d="M441 309l-36 369h-2l-168 -369h206zM-29 0l351 742h179l87 -742h-116l-20 203h-265l-93 -203h-123zM276 767l18 100c35 22 50 26 68 26c47 0 93 -40 132 -40c27 0 57 26 76 44l-17 -99c-34 -20 -50 -27 -71 -27c-53 0 -90 40 -128 40c-26 0 -41 -14 -78 -44z" />
    <glyph glyph-name="Ccedilla" unicode="&#xc7;" horiz-adv-x="611" 
d="M671 659l-25 -130c-54 72 -109 103 -203 103c-174 0 -245 -207 -245 -360c0 -122 62 -180 156 -180c100 0 172 56 230 138h2l-19 -136c-50 -62 -116 -91 -171 -101l-68 -127h-103l80 122c-182 14 -219 152 -219 294c0 228 96 474 365 474c100 0 181 -32 220 -97z" />
    <glyph glyph-name="Eacute" unicode="&#xc9;" horiz-adv-x="611" 
d="M63 0l131 742h468l-21 -118h-354l-36 -203h348l-19 -106h-347l-37 -209h342l-19 -106h-456zM324 775l105 112h145v-2l-154 -110h-96z" />
    <glyph glyph-name="Ecircumflex" unicode="&#xca;" horiz-adv-x="611" 
d="M63 0l131 742h468l-21 -118h-354l-36 -203h348l-19 -106h-347l-37 -209h342l-19 -106h-456zM266 775l105 112h141l60 -112h-85l-48 79l-77 -79h-96z" />
    <glyph glyph-name="Edieresis" unicode="&#xcb;" horiz-adv-x="611" 
d="M63 0l131 742h468l-21 -118h-354l-36 -203h348l-19 -106h-347l-37 -209h342l-19 -106h-456zM275 827c0 38 22 60 66 60c34 0 64 -11 64 -44c0 -40 -22 -62 -66 -62c-34 0 -64 11 -64 46zM469 827c0 38 22 60 66 60c34 0 64 -11 64 -44c0 -40 -22 -62 -66 -62
c-34 0 -64 11 -64 46z" />
    <glyph glyph-name="Egrave" unicode="&#xc8;" horiz-adv-x="611" 
d="M63 0l131 742h468l-21 -118h-354l-36 -203h348l-19 -106h-347l-37 -209h342l-19 -106h-456zM428 775l-154 112h145l105 -112h-96z" />
    <glyph glyph-name="Iacute" unicode="&#xcd;" 
d="M58 0l128 742h114l-128 -742h-114zM157 775l105 112h145v-2l-154 -110h-96z" />
    <glyph glyph-name="Icircumflex" unicode="&#xce;" 
d="M58 0l128 742h114l-128 -742h-114zM99 775l105 112h141l60 -112h-85l-48 79l-77 -79h-96z" />
    <glyph glyph-name="Idieresis" unicode="&#xcf;" 
d="M58 0l128 742h114l-128 -742h-114zM108 827c0 38 22 60 66 60c34 0 64 -11 64 -44c0 -40 -22 -62 -66 -62c-34 0 -64 11 -64 46zM302 827c0 38 22 60 66 60c34 0 64 -11 64 -44c0 -40 -22 -62 -66 -62c-34 0 -64 11 -64 46z" />
    <glyph glyph-name="Igrave" unicode="&#xcc;" 
d="M58 0l128 742h114l-128 -742h-114zM261 775l-154 112h145l105 -112h-96z" />
    <glyph glyph-name="Ntilde" unicode="&#xd1;" horiz-adv-x="722" 
d="M63 0l131 742h190l136 -648h2l116 648h106l-133 -742h-171l-148 662h-2l-115 -662h-112zM340 767l18 100c35 22 50 26 68 26c47 0 93 -40 132 -40c27 0 57 26 76 44l-17 -99c-34 -20 -50 -27 -71 -27c-53 0 -90 40 -128 40c-26 0 -41 -14 -78 -44z" />
    <glyph glyph-name="Oacute" unicode="&#xd3;" horiz-adv-x="722" 
d="M722 469c0 -151 -78 -483 -376 -483c-210 0 -260 156 -260 296c0 228 105 474 365 474c184 0 271 -110 271 -287zM443 632c-186 0 -251 -207 -251 -363c0 -121 68 -177 162 -177c180 0 250 198 250 367c0 104 -61 173 -161 173zM379 775l105 112h145v-2l-154 -110h-96z
" />
    <glyph glyph-name="Ocircumflex" unicode="&#xd4;" horiz-adv-x="722" 
d="M722 469c0 -151 -78 -483 -376 -483c-210 0 -260 156 -260 296c0 228 105 474 365 474c184 0 271 -110 271 -287zM443 632c-186 0 -251 -207 -251 -363c0 -121 68 -177 162 -177c180 0 250 198 250 367c0 104 -61 173 -161 173zM321 775l105 112h141l60 -112h-85l-48 79
l-77 -79h-96z" />
    <glyph glyph-name="Odieresis" unicode="&#xd6;" horiz-adv-x="722" 
d="M722 469c0 -151 -78 -483 -376 -483c-210 0 -260 156 -260 296c0 228 105 474 365 474c184 0 271 -110 271 -287zM443 632c-186 0 -251 -207 -251 -363c0 -121 68 -177 162 -177c180 0 250 198 250 367c0 104 -61 173 -161 173zM330 827c0 38 22 60 66 60
c34 0 64 -11 64 -44c0 -40 -22 -62 -66 -62c-34 0 -64 11 -64 46zM524 827c0 38 22 60 66 60c34 0 64 -11 64 -44c0 -40 -22 -62 -66 -62c-34 0 -64 11 -64 46z" />
    <glyph glyph-name="Ograve" unicode="&#xd2;" horiz-adv-x="722" 
d="M722 469c0 -151 -78 -483 -376 -483c-210 0 -260 156 -260 296c0 228 105 474 365 474c184 0 271 -110 271 -287zM443 632c-186 0 -251 -207 -251 -363c0 -121 68 -177 162 -177c180 0 250 198 250 367c0 104 -61 173 -161 173zM483 775l-154 112h145l105 -112h-96z" />
    <glyph glyph-name="Otilde" unicode="&#xd5;" horiz-adv-x="722" 
d="M722 469c0 -151 -78 -483 -376 -483c-210 0 -260 156 -260 296c0 228 105 474 365 474c184 0 271 -110 271 -287zM443 632c-186 0 -251 -207 -251 -363c0 -121 68 -177 162 -177c180 0 250 198 250 367c0 104 -61 173 -161 173zM340 767l18 100c35 22 50 26 68 26
c47 0 93 -40 132 -40c27 0 57 26 76 44l-17 -99c-34 -20 -50 -27 -71 -27c-53 0 -90 40 -128 40c-26 0 -41 -14 -78 -44z" />
    <glyph glyph-name="Scaron" unicode="&#x160;" horiz-adv-x="556" 
d="M579 684l-21 -124c-37 46 -101 78 -160 78c-130 0 -158 -64 -158 -113c0 -139 274 -69 274 -286c0 -150 -113 -253 -261 -253c-84 0 -139 15 -201 75l20 118c42 -61 107 -87 174 -87c126 0 156 80 156 113c0 168 -280 68 -280 310c0 113 92 241 276 241
c68 0 134 -20 181 -72zM280 810l-60 112h85l48 -79l77 79h96l-105 -112h-141z" />
    <glyph glyph-name="Uacute" unicode="&#xda;" horiz-adv-x="722" 
d="M109 274l85 468h114l-80 -440c-7 -39 -9 -67 -9 -93c0 -62 30 -111 128 -111c105 0 176 63 197 171l86 473h114l-84 -461c-37 -205 -148 -295 -332 -295c-144 0 -227 74 -227 195c0 29 2 60 8 93zM370 775l105 112h145v-2l-154 -110h-96z" />
    <glyph glyph-name="Ucircumflex" unicode="&#xdb;" horiz-adv-x="722" 
d="M109 274l85 468h114l-80 -440c-7 -39 -9 -67 -9 -93c0 -62 30 -111 128 -111c105 0 176 63 197 171l86 473h114l-84 -461c-37 -205 -148 -295 -332 -295c-144 0 -227 74 -227 195c0 29 2 60 8 93zM312 775l105 112h141l60 -112h-85l-48 79l-77 -79h-96z" />
    <glyph glyph-name="Udieresis" unicode="&#xdc;" horiz-adv-x="722" 
d="M109 274l85 468h114l-80 -440c-7 -39 -9 -67 -9 -93c0 -62 30 -111 128 -111c105 0 176 63 197 171l86 473h114l-84 -461c-37 -205 -148 -295 -332 -295c-144 0 -227 74 -227 195c0 29 2 60 8 93zM321 827c0 38 22 60 66 60c34 0 64 -11 64 -44c0 -40 -22 -62 -66 -62
c-34 0 -64 11 -64 46zM515 827c0 38 22 60 66 60c34 0 64 -11 64 -44c0 -40 -22 -62 -66 -62c-34 0 -64 11 -64 46z" />
    <glyph glyph-name="Ugrave" unicode="&#xd9;" horiz-adv-x="722" 
d="M109 274l85 468h114l-80 -440c-7 -39 -9 -67 -9 -93c0 -62 30 -111 128 -111c105 0 176 63 197 171l86 473h114l-84 -461c-37 -205 -148 -295 -332 -295c-144 0 -227 74 -227 195c0 29 2 60 8 93zM474 775l-154 112h145l105 -112h-96z" />
    <glyph glyph-name="Yacute" unicode="&#xdd;" horiz-adv-x="611" 
d="M208 0l48 271l-137 471h128l86 -350l232 350h142l-335 -476l-47 -266h-117zM315 775l105 112h145v-2l-154 -110h-96z" />
    <glyph glyph-name="Ydieresis" unicode="&#x178;" horiz-adv-x="611" 
d="M208 0l48 271l-137 471h128l86 -350l232 350h142l-335 -476l-47 -266h-117zM248 827c0 38 22 60 66 60c34 0 64 -11 64 -44c0 -40 -22 -62 -66 -62c-34 0 -64 11 -64 46zM442 827c0 38 22 60 66 60c34 0 64 -11 64 -44c0 -40 -22 -62 -66 -62c-34 0 -64 11 -64 46z" />
    <glyph glyph-name="Zcaron" unicode="&#x17d;" horiz-adv-x="556" 
d="M10 0l25 136l427 482h-349l24 124h476l-30 -156l-420 -474h350l-19 -112h-484zM280 810l-60 112h85l48 -79l77 79h96l-105 -112h-141z" />
    <glyph glyph-name="aacute" unicode="&#xe1;" horiz-adv-x="556" 
d="M531 373l-66 -373h-105l25 116l-2 2c-41 -70 -105 -132 -194 -132c-92 0 -142 62 -142 148c0 232 383 166 383 321c0 54 -53 70 -93 70c-78 0 -136 -28 -223 -113h-2l28 142c85 62 129 83 213 83c164 0 189 -107 189 -171c0 -24 -5 -59 -11 -93zM159 142
c0 -34 30 -68 73 -68c125 0 167 134 185 237c-101 -72 -258 -68 -258 -169zM269 691l105 112h145v-2l-154 -110h-96z" />
    <glyph glyph-name="acircumflex" unicode="&#xe2;" horiz-adv-x="556" 
d="M531 373l-66 -373h-105l25 116l-2 2c-41 -70 -105 -132 -194 -132c-92 0 -142 62 -142 148c0 232 383 166 383 321c0 54 -53 70 -93 70c-78 0 -136 -28 -223 -113h-2l28 142c85 62 129 83 213 83c164 0 189 -107 189 -171c0 -24 -5 -59 -11 -93zM159 142
c0 -34 30 -68 73 -68c125 0 167 134 185 237c-101 -72 -258 -68 -258 -169zM211 691l105 112h141l60 -112h-85l-48 79l-77 -79h-96z" />
    <glyph glyph-name="adieresis" unicode="&#xe4;" horiz-adv-x="556" 
d="M531 373l-66 -373h-105l25 116l-2 2c-41 -70 -105 -132 -194 -132c-92 0 -142 62 -142 148c0 232 383 166 383 321c0 54 -53 70 -93 70c-78 0 -136 -28 -223 -113h-2l28 142c85 62 129 83 213 83c164 0 189 -107 189 -171c0 -24 -5 -59 -11 -93zM159 142
c0 -34 30 -68 73 -68c125 0 167 134 185 237c-101 -72 -258 -68 -258 -169zM220 743c0 38 22 60 66 60c34 0 64 -11 64 -44c0 -40 -22 -62 -66 -62c-34 0 -64 11 -64 46zM414 743c0 38 22 60 66 60c34 0 64 -11 64 -44c0 -40 -22 -62 -66 -62c-34 0 -64 11 -64 46z" />
    <glyph glyph-name="agrave" unicode="&#xe0;" horiz-adv-x="556" 
d="M531 373l-66 -373h-105l25 116l-2 2c-41 -70 -105 -132 -194 -132c-92 0 -142 62 -142 148c0 232 383 166 383 321c0 54 -53 70 -93 70c-78 0 -136 -28 -223 -113h-2l28 142c85 62 129 83 213 83c164 0 189 -107 189 -171c0 -24 -5 -59 -11 -93zM159 142
c0 -34 30 -68 73 -68c125 0 167 134 185 237c-101 -72 -258 -68 -258 -169zM373 691l-154 112h145l105 -112h-96z" />
    <glyph glyph-name="aring" unicode="&#xe5;" horiz-adv-x="556" 
d="M531 373l-66 -373h-105l25 116l-2 2c-41 -70 -105 -132 -194 -132c-92 0 -142 62 -142 148c0 232 383 166 383 321c0 54 -53 70 -93 70c-78 0 -136 -28 -223 -113h-2l28 142c85 62 129 83 213 83c164 0 189 -107 189 -171c0 -24 -5 -59 -11 -93zM159 142
c0 -34 30 -68 73 -68c125 0 167 134 185 237c-101 -72 -258 -68 -258 -169zM428 776c0 31 -23 54 -54 54s-54 -23 -54 -54s23 -54 54 -54c27 0 54 21 54 54zM268 776c0 59 47 106 106 106s106 -47 106 -106s-47 -106 -106 -106s-106 47 -106 106z" />
    <glyph glyph-name="atilde" unicode="&#xe3;" horiz-adv-x="556" 
d="M531 373l-66 -373h-105l25 116l-2 2c-41 -70 -105 -132 -194 -132c-92 0 -142 62 -142 148c0 232 383 166 383 321c0 54 -53 70 -93 70c-78 0 -136 -28 -223 -113h-2l28 142c85 62 129 83 213 83c164 0 189 -107 189 -171c0 -24 -5 -59 -11 -93zM159 142
c0 -34 30 -68 73 -68c125 0 167 134 185 237c-101 -72 -258 -68 -258 -169zM230 683l18 100c35 22 50 26 68 26c47 0 93 -40 132 -40c27 0 57 26 76 44l-17 -99c-34 -20 -50 -27 -71 -27c-53 0 -90 40 -128 40c-26 0 -41 -14 -78 -44z" />
    <glyph glyph-name="ccedilla" unicode="&#xe7;" horiz-adv-x="500" 
d="M553 561l-24 -119c-19 40 -71 83 -145 83c-116 0 -207 -95 -207 -274c0 -87 37 -165 134 -165c77 0 135 60 171 115l4 4l-20 -132c-33 -43 -74 -69 -116 -79l-69 -128h-103l82 122c-142 14 -195 113 -195 272c0 204 118 377 315 377c63 0 143 -30 173 -76z" />
    <glyph glyph-name="eacute" unicode="&#xe9;" horiz-adv-x="611" 
d="M532 174l-16 -107c-44 -45 -117 -81 -205 -81c-163 0 -236 100 -236 244c0 234 125 407 314 407c140 0 222 -63 222 -201c0 -55 -13 -109 -27 -158h-400c-2 -11 -3 -25 -3 -44c0 -98 48 -154 149 -154c79 0 144 35 202 94zM202 372h320c5 16 7 31 7 44
c0 80 -63 115 -135 115c-104 0 -163 -64 -192 -159zM297 691l105 112h145v-2l-154 -110h-96z" />
    <glyph glyph-name="ecircumflex" unicode="&#xea;" horiz-adv-x="611" 
d="M532 174l-16 -107c-44 -45 -117 -81 -205 -81c-163 0 -236 100 -236 244c0 234 125 407 314 407c140 0 222 -63 222 -201c0 -55 -13 -109 -27 -158h-400c-2 -11 -3 -25 -3 -44c0 -98 48 -154 149 -154c79 0 144 35 202 94zM202 372h320c5 16 7 31 7 44
c0 80 -63 115 -135 115c-104 0 -163 -64 -192 -159zM239 691l105 112h141l60 -112h-85l-48 79l-77 -79h-96z" />
    <glyph glyph-name="edieresis" unicode="&#xeb;" horiz-adv-x="611" 
d="M532 174l-16 -107c-44 -45 -117 -81 -205 -81c-163 0 -236 100 -236 244c0 234 125 407 314 407c140 0 222 -63 222 -201c0 -55 -13 -109 -27 -158h-400c-2 -11 -3 -25 -3 -44c0 -98 48 -154 149 -154c79 0 144 35 202 94zM202 372h320c5 16 7 31 7 44
c0 80 -63 115 -135 115c-104 0 -163 -64 -192 -159zM248 743c0 38 22 60 66 60c34 0 64 -11 64 -44c0 -40 -22 -62 -66 -62c-34 0 -64 11 -64 46zM442 743c0 38 22 60 66 60c34 0 64 -11 64 -44c0 -40 -22 -62 -66 -62c-34 0 -64 11 -64 46z" />
    <glyph glyph-name="egrave" unicode="&#xe8;" horiz-adv-x="611" 
d="M532 174l-16 -107c-44 -45 -117 -81 -205 -81c-163 0 -236 100 -236 244c0 234 125 407 314 407c140 0 222 -63 222 -201c0 -55 -13 -109 -27 -158h-400c-2 -11 -3 -25 -3 -44c0 -98 48 -154 149 -154c79 0 144 35 202 94zM202 372h320c5 16 7 31 7 44
c0 80 -63 115 -135 115c-104 0 -163 -64 -192 -159zM401 691l-154 112h145l105 -112h-96z" />
    <glyph glyph-name="iacute" unicode="&#xed;" 
d="M58 0l112 623c16 -11 33 -16 49 -16c22 0 46 3 65 16l-112 -623h-114zM130 691l105 112h145v-2l-154 -110h-96z" />
    <glyph glyph-name="icircumflex" unicode="&#xee;" 
d="M58 0l112 623c16 -11 33 -16 49 -16c22 0 46 3 65 16l-112 -623h-114zM72 691l105 112h141l60 -112h-85l-48 79l-77 -79h-96z" />
    <glyph glyph-name="idieresis" unicode="&#xef;" 
d="M58 0l112 623c16 -11 33 -16 49 -16c22 0 46 3 65 16l-112 -623h-114zM81 743c0 38 22 60 66 60c34 0 64 -11 64 -44c0 -40 -22 -62 -66 -62c-34 0 -64 11 -64 46zM275 743c0 38 22 60 66 60c34 0 64 -11 64 -44c0 -40 -22 -62 -66 -62c-34 0 -64 11 -64 46z" />
    <glyph glyph-name="igrave" unicode="&#xec;" 
d="M58 0l112 623c16 -11 33 -16 49 -16c22 0 46 3 65 16l-112 -623h-114zM234 691l-154 112h145l105 -112h-96z" />
    <glyph glyph-name="ntilde" unicode="&#xf1;" horiz-adv-x="667" 
d="M58 0l109 623h108l-26 -150h2c57 94 136 164 254 164c92 0 148 -50 148 -144c0 -20 -2 -40 -6 -60l-76 -433h-114l65 372c4 24 7 52 7 73c0 50 -28 80 -90 80c-148 0 -200 -140 -221 -262l-46 -263h-114zM286 683l18 100c35 22 50 26 68 26c47 0 93 -40 132 -40
c27 0 57 26 76 44l-17 -99c-34 -20 -50 -27 -71 -27c-53 0 -90 40 -128 40c-26 0 -41 -14 -78 -44z" />
    <glyph glyph-name="oacute" unicode="&#xf3;" horiz-adv-x="667" 
d="M547 367c0 107 -56 158 -153 158c-140 0 -213 -107 -213 -274c0 -87 37 -165 145 -165c150 0 221 149 221 281zM653 384c0 -180 -99 -398 -342 -398c-145 0 -236 100 -236 274c0 204 118 377 334 377c137 0 244 -91 244 -253zM325 691l105 112h145v-2l-154 -110h-96z" />
    <glyph glyph-name="ocircumflex" unicode="&#xf4;" horiz-adv-x="667" 
d="M547 367c0 107 -56 158 -153 158c-140 0 -213 -107 -213 -274c0 -87 37 -165 145 -165c150 0 221 149 221 281zM653 384c0 -180 -99 -398 -342 -398c-145 0 -236 100 -236 274c0 204 118 377 334 377c137 0 244 -91 244 -253zM267 691l105 112h141l60 -112h-85l-48 79
l-77 -79h-96z" />
    <glyph glyph-name="odieresis" unicode="&#xf6;" horiz-adv-x="667" 
d="M547 367c0 107 -56 158 -153 158c-140 0 -213 -107 -213 -274c0 -87 37 -165 145 -165c150 0 221 149 221 281zM653 384c0 -180 -99 -398 -342 -398c-145 0 -236 100 -236 274c0 204 118 377 334 377c137 0 244 -91 244 -253zM276 743c0 38 22 60 66 60
c34 0 64 -11 64 -44c0 -40 -22 -62 -66 -62c-34 0 -64 11 -64 46zM470 743c0 38 22 60 66 60c34 0 64 -11 64 -44c0 -40 -22 -62 -66 -62c-34 0 -64 11 -64 46z" />
    <glyph glyph-name="ograve" unicode="&#xf2;" horiz-adv-x="667" 
d="M547 367c0 107 -56 158 -153 158c-140 0 -213 -107 -213 -274c0 -87 37 -165 145 -165c150 0 221 149 221 281zM653 384c0 -180 -99 -398 -342 -398c-145 0 -236 100 -236 274c0 204 118 377 334 377c137 0 244 -91 244 -253zM429 691l-154 112h145l105 -112h-96z" />
    <glyph glyph-name="otilde" unicode="&#xf5;" horiz-adv-x="667" 
d="M547 367c0 107 -56 158 -153 158c-140 0 -213 -107 -213 -274c0 -87 37 -165 145 -165c150 0 221 149 221 281zM653 384c0 -180 -99 -398 -342 -398c-145 0 -236 100 -236 274c0 204 118 377 334 377c137 0 244 -91 244 -253zM286 683l18 100c35 22 50 26 68 26
c47 0 93 -40 132 -40c27 0 57 26 76 44l-17 -99c-34 -20 -50 -27 -71 -27c-53 0 -90 40 -128 40c-26 0 -41 -14 -78 -44z" />
    <glyph glyph-name="scaron" unicode="&#x161;" horiz-adv-x="444" 
d="M470 580l-19 -116c-34 38 -85 61 -136 61c-57 0 -112 -28 -112 -87c0 -109 213 -52 213 -242c0 -120 -101 -210 -219 -210c-68 0 -113 20 -169 65l17 107c33 -36 89 -72 147 -72c55 0 118 32 118 90c0 115 -219 65 -219 251c0 129 106 210 230 210c55 0 113 -19 149 -57z
M224 691l-60 112h85l48 -79l77 79h96l-105 -112h-141z" />
    <glyph glyph-name="uacute" unicode="&#xfa;" horiz-adv-x="667" 
d="M450 0l25 133l-2 2c-53 -83 -121 -149 -228 -149c-101 0 -160 63 -160 164c0 28 10 72 16 107l65 366h114l-61 -340c-9 -51 -10 -76 -10 -101c0 -78 37 -96 94 -96c134 0 182 167 200 265l49 272h114l-111 -623h-105zM325 691l105 112h145v-2l-154 -110h-96z" />
    <glyph glyph-name="ucircumflex" unicode="&#xfb;" horiz-adv-x="667" 
d="M450 0l25 133l-2 2c-53 -83 -121 -149 -228 -149c-101 0 -160 63 -160 164c0 28 10 72 16 107l65 366h114l-61 -340c-9 -51 -10 -76 -10 -101c0 -78 37 -96 94 -96c134 0 182 167 200 265l49 272h114l-111 -623h-105zM267 691l105 112h141l60 -112h-85l-48 79l-77 -79
h-96z" />
    <glyph glyph-name="udieresis" unicode="&#xfc;" horiz-adv-x="667" 
d="M450 0l25 133l-2 2c-53 -83 -121 -149 -228 -149c-101 0 -160 63 -160 164c0 28 10 72 16 107l65 366h114l-61 -340c-9 -51 -10 -76 -10 -101c0 -78 37 -96 94 -96c134 0 182 167 200 265l49 272h114l-111 -623h-105zM276 743c0 38 22 60 66 60c34 0 64 -11 64 -44
c0 -40 -22 -62 -66 -62c-34 0 -64 11 -64 46zM470 743c0 38 22 60 66 60c34 0 64 -11 64 -44c0 -40 -22 -62 -66 -62c-34 0 -64 11 -64 46z" />
    <glyph glyph-name="ugrave" unicode="&#xf9;" horiz-adv-x="667" 
d="M450 0l25 133l-2 2c-53 -83 -121 -149 -228 -149c-101 0 -160 63 -160 164c0 28 10 72 16 107l65 366h114l-61 -340c-9 -51 -10 -76 -10 -101c0 -78 37 -96 94 -96c134 0 182 167 200 265l49 272h114l-111 -623h-105zM429 691l-154 112h145l105 -112h-96z" />
    <glyph glyph-name="yacute" unicode="&#xfd;" horiz-adv-x="556" 
d="M96 -150l81 164l-78 609h118l46 -478h2l236 478h134l-415 -773h-124zM269 691l105 112h145v-2l-154 -110h-96z" />
    <glyph glyph-name="ydieresis" unicode="&#xff;" horiz-adv-x="556" 
d="M96 -150l81 164l-78 609h118l46 -478h2l236 478h134l-415 -773h-124zM220 743c0 38 22 60 66 60c34 0 64 -11 64 -44c0 -40 -22 -62 -66 -62c-34 0 -64 11 -64 46zM414 743c0 38 22 60 66 60c34 0 64 -11 64 -44c0 -40 -22 -62 -66 -62c-34 0 -64 11 -64 46z" />
    <glyph glyph-name="zcaron" unicode="&#x17e;" horiz-adv-x="500" 
d="M12 0l25 133l359 384h-292l19 106h414l-25 -138l-354 -379h296l-15 -106h-427zM252 691l-60 112h85l48 -79l77 79h96l-105 -112h-141z" />
    <glyph glyph-name="one.superior" unicode="&#xb9;" horiz-adv-x="361" 
d="M207 298l68 340l-168 -129l17 102l178 139h81l-85 -452h-91z" />
    <glyph glyph-name="two.superior" unicode="&#xb2;" horiz-adv-x="361" 
d="M52 298l13 72l43 33c140 100 220 154 220 215c0 47 -42 56 -75 56c-65 0 -110 -46 -143 -88h-2l19 110c35 28 76 60 140 60c84 0 155 -38 155 -123c0 -68 -28 -111 -179 -215l-52 -36v-2h177l-13 -82h-303z" />
    <glyph glyph-name="three.superior" unicode="&#xb3;" horiz-adv-x="361" 
d="M64 344l12 94c34 -42 75 -58 123 -58c73 0 97 40 97 77c0 44 -56 56 -97 56c-14 0 -29 -1 -43 -4l10 70l132 81v2h-178l13 88h297l-13 -85l-173 -98v-2c74 0 146 -18 146 -116c0 -79 -70 -157 -188 -157c-59 0 -103 15 -138 52z" />
    <glyph glyph-name="Delta" unicode="&#x2206;" horiz-adv-x="652" 
d="M-5 0l12 61l392 699h109l89 -698l-13 -62h-589zM106 78h395l-52 374c-5 58 -20 146 -22 195h-3c-18 -41 -66 -121 -96 -180z" />
    <glyph glyph-name="Omega" unicode="&#x2126;" horiz-adv-x="712" 
d="M170 79v3c-54 67 -92 178 -62 322c43 202 201 350 375 350c184 0 256 -169 219 -344c-32 -148 -123 -266 -202 -328v-3h145l-16 -79h-247l12 58c81 50 173 163 209 332c28 136 -7 283 -139 283c-125 0 -230 -125 -264 -286c-34 -157 8 -281 68 -329l-13 -58h-247l17 79
h145z" />
    <glyph glyph-name="uni03BC" unicode="&#x3bc;" horiz-adv-x="667" 
d="M28 -150l138 773h114l-61 -340c-8 -46 -10 -84 -10 -101c0 -78 35 -96 94 -96c134 0 182 167 200 265l49 272h114l-111 -623h-105l25 133l-2 2c-53 -83 -121 -149 -228 -149c-34 0 -59 8 -75 20l-28 -156h-114z" />
    <glyph glyph-name="pi" unicode="&#x3c0;" horiz-adv-x="583" 
d="M621 472h-77l-68 -318c-18 -84 -20 -124 -18 -154h-91c-6 19 -3 66 14 148l69 324h-166c-33 -130 -111 -365 -171 -472h-91c62 119 137 338 169 472c-57 0 -86 -5 -108 -12v64c29 17 78 30 158 30h405z" />
    <glyph glyph-name="Euro" unicode="&#x20ac;" horiz-adv-x="556" 
d="M425 333l-33 -87l-181 -1c7 -108 64 -162 127 -162c68 0 138 40 183 81l-31 -134c-50 -38 -95 -44 -162 -44c-148 0 -211 107 -220 259h-77l34 88h45c2 20 6 41 9 64h-69l34 88h58c43 135 133 267 295 267c69 0 137 -20 166 -70l-24 -120c-25 39 -85 80 -150 80
c-80 0 -143 -57 -181 -157h236l-34 -88h-225c-5 -21 -8 -42 -10 -64h210z" />
    <glyph glyph-name="afii61289" unicode="&#x2113;" horiz-adv-x="497" 
d="M432 164l33 -39c-65 -92 -143 -134 -221 -134c-121 0 -149 88 -132 191c1 5 2 9 2 13c-20 -14 -43 -31 -66 -47l-14 54c35 26 67 48 97 73l60 285c41 189 135 256 219 256c88 0 112 -76 91 -175c-27 -130 -134 -256 -283 -381l-9 -42c-22 -107 15 -152 70 -152
c60 0 117 52 153 98zM282 561l-45 -209c101 95 184 195 204 290c13 63 4 103 -44 103c-36 0 -86 -44 -115 -184z" />
    <glyph glyph-name="estimated" unicode="&#x212e;" horiz-adv-x="1051" 
d="M1015 360h-692c-3 0 -6 -1 -6 -4v-210c0 -9 4 -17 9 -24c68 -69 160 -114 262 -114c111 0 209 50 276 128h62c-77 -90 -201 -149 -339 -149c-236 0 -427 172 -427 383c0 214 191 386 427 386c237 0 428 -172 428 -386v-10zM858 388v210c0 9 -3 19 -10 25
c-67 66 -158 110 -260 110c-101 0 -193 -45 -260 -113c-7 -7 -11 -16 -11 -26v-206c0 -3 3 -7 6 -7h531c3 0 4 4 4 7z" />
    <glyph glyph-name="partialdiff" unicode="&#x2202;" horiz-adv-x="559" 
d="M217 703l-14 72c38 27 100 59 185 59c134 0 234 -127 176 -401c-56 -262 -188 -442 -363 -442c-133 0 -171 124 -145 246c36 169 160 275 274 275c87 0 129 -61 138 -91h1c3 11 7 30 10 41c35 167 -17 292 -119 292c-61 0 -110 -27 -143 -51zM227 71h1
c88 0 172 128 212 260c-4 42 -39 103 -110 103c-78 0 -159 -92 -181 -199c-21 -95 9 -164 78 -164z" />
    <glyph glyph-name="product" unicode="&#x220f;" horiz-adv-x="830" 
d="M804 655h-106v-757h-93v757h-259v-757h-92v757h-106v87h656v-87z" />
    <glyph glyph-name="summation" unicode="&#x2211;" horiz-adv-x="679" 
d="M657 -103h-512v64l261 359l-250 355v67h485v-81h-359v-4l230 -322l-251 -344v-3h396v-91z" />
    <glyph glyph-name="uni2219" unicode="&#x2219;" 
d="M91 304c0 44 37 81 81 81s81 -37 81 -81s-37 -81 -81 -81s-81 37 -81 81z" />
    <glyph glyph-name="radical" unicode="&#x221a;" horiz-adv-x="709" 
d="M711 886l-224 -1041h-79l-157 484l-76 -28l-17 56l151 59l119 -371c6 -30 14 -62 18 -84h1c4 21 9 54 15 86l181 839h68z" />
    <glyph glyph-name="infinity" unicode="&#x221e;" horiz-adv-x="859" 
d="M809 308v-1c0 -104 -77 -168 -159 -168c-63 0 -116 35 -187 120c-53 -63 -109 -120 -192 -120c-84 0 -157 69 -157 164c0 98 70 167 164 167c77 0 135 -53 189 -119c49 55 101 120 190 119c89 0 152 -65 152 -162zM278 195h2c62 0 110 59 152 106
c-45 56 -88 115 -159 115c-63 0 -100 -52 -100 -114c0 -59 44 -107 105 -107zM651 416h-1c-67 0 -119 -73 -154 -110c66 -76 103 -111 157 -111c63 0 98 57 98 108c0 69 -42 113 -100 113z" />
    <glyph glyph-name="integral" unicode="&#x222b;" horiz-adv-x="504" 
d="M483 897l-13 -67c-9 6 -22 10 -36 10c-18 0 -38 -7 -51 -26c-24 -30 -32 -88 -32 -186c0 -168 14 -348 14 -527c0 -110 -18 -176 -42 -215c-24 -42 -68 -61 -111 -61c-29 0 -57 9 -70 17l15 69c9 -4 25 -11 44 -11c17 0 35 7 46 23c19 26 32 74 32 177
c0 181 -14 364 -14 537c0 119 15 185 57 229c26 30 66 44 104 44c22 0 46 -7 57 -13z" />
    <glyph glyph-name="approxequal" unicode="&#x2248;" horiz-adv-x="625" 
d="M544 460l37 -32c-28 -57 -72 -101 -133 -101c-41 0 -69 14 -116 42c-32 19 -59 35 -92 35c-47 0 -73 -37 -98 -76l-37 31c30 61 81 102 141 102c50 0 85 -26 112 -41c36 -20 59 -36 93 -36c40 0 66 28 93 76zM544 280l37 -32c-28 -57 -71 -102 -133 -102
c-41 0 -69 15 -116 43c-32 19 -59 35 -92 35c-47 0 -73 -37 -98 -77l-37 32c30 61 81 102 141 102c50 0 85 -26 112 -40c33 -19 58 -37 93 -37c41 0 65 28 93 76z" />
    <glyph glyph-name="notequal" unicode="&#x2260;" horiz-adv-x="644" 
d="M486 530l-44 -97h151v-59h-173l-65 -146h238v-58h-261l-53 -119l-46 20l44 99h-146v58h169l65 146h-234v59h257l52 117z" />
    <glyph glyph-name="lessequal" unicode="&#x2264;" horiz-adv-x="661" 
d="M608 106l-453 232v63l453 232v-70l-393 -192v-2l393 -193v-70zM611 4h-462v60h462v-60z" />
    <glyph glyph-name="greaterequal" unicode="&#x2265;" horiz-adv-x="662" 
d="M156 633l453 -232v-63l-453 -232v70l393 192v3l-393 192v70zM611 4h-461v60h461v-60z" />
    <glyph glyph-name="lozenge" unicode="&#x25ca;" horiz-adv-x="710" 
d="M656 371l-203 -418h-76l-199 418l203 418h76zM571 368l-133 280c-8 19 -16 44 -19 60h-3c-5 -18 -11 -39 -20 -60l-133 -275l134 -283c8 -21 15 -44 18 -58h4c3 15 12 44 18 57z" />
    <glyph glyph-name="uni00A0" unicode="&#xa0;" 
 />
    <glyph glyph-name="uni00AD" unicode="&#xad;" horiz-adv-x="389" 
d="M110 277l18 100h220l-18 -100h-220z" />
    <glyph glyph-name="uni02C9" unicode="&#x2c9;" 
d="M78 721l11 82h303l-11 -82h-303z" />
    <glyph glyph-name="uni2215" unicode="&#x2215;" horiz-adv-x="167" 
d="M-60 -14h-73l432 770h73z" />
    <glyph glyph-name="uni03A9" unicode="&#x3a9;" horiz-adv-x="712" 
d="M170 79v3c-54 67 -92 178 -62 322c43 202 201 350 375 350c184 0 256 -169 219 -344c-32 -148 -123 -266 -202 -328v-3h145l-16 -79h-247l12 58c81 50 173 163 209 332c28 136 -7 283 -139 283c-125 0 -230 -125 -264 -286c-34 -157 8 -281 68 -329l-13 -58h-247l17 79
h145z" />
    </font>
</defs>
</svg>
